<?xml version="1.0" encoding="UTF-8" standalone="no"?>
<!-- Created with Inkscape (http://www.inkscape.org/) -->

<svg
   xmlns:dc="http://purl.org/dc/elements/1.1/"
   xmlns:cc="http://creativecommons.org/ns#"
   xmlns:rdf="http://www.w3.org/1999/02/22-rdf-syntax-ns#"
   xmlns:svg="http://www.w3.org/2000/svg"
   xmlns="http://www.w3.org/2000/svg"
   xmlns:sodipodi="http://sodipodi.sourceforge.net/DTD/sodipodi-0.dtd"
   xmlns:inkscape="http://www.inkscape.org/namespaces/inkscape"
   id="svg2"
   version="1.1"
   inkscape:version="0.92.1 r"
   xml:space="preserve"
   width="512"
   height="512"
   viewBox="0 0 479.99999 480.00002"
   sodipodi:docname="logo_spoi.svg"
   inkscape:export-filename="/home/raitis/Projects/hslayers-ng/cordova/cesisPoi/www/img/logo_spoi.svg.png"
   inkscape:export-xdpi="96"
   inkscape:export-ydpi="96"><metadata
     id="metadata8"><rdf:RDF><cc:Work
         rdf:about=""><dc:format>image/svg+xml</dc:format><dc:type
           rdf:resource="http://purl.org/dc/dcmitype/StillImage" /><dc:title></dc:title></cc:Work></rdf:RDF></metadata><defs
     id="defs6" /><sodipodi:namedview
     pagecolor="#ffffff"
     bordercolor="#666666"
     borderopacity="1"
     objecttolerance="10"
     gridtolerance="10"
     guidetolerance="10"
     inkscape:pageopacity="0"
     inkscape:pageshadow="2"
     inkscape:window-width="1920"
     inkscape:window-height="1016"
     id="namedview4"
     showgrid="false"
     inkscape:zoom="0.81474484"
     inkscape:cx="680.4011"
     inkscape:cy="166.30758"
     inkscape:window-x="0"
     inkscape:window-y="27"
     inkscape:window-maximized="1"
     inkscape:current-layer="g12"
     inkscape:snap-smooth-nodes="true"
     inkscape:snap-midpoints="false"
     inkscape:object-nodes="false" /><g
     id="g10"
     inkscape:groupmode="layer"
     inkscape:label="ink_ext_XXXXXX"
     transform="matrix(1.25,0,0,-1.25,0,480.00002)"><g
       id="g12"
       transform="scale(0.1)"><path
         d="m 68.3477,1103.7569 h 530.37596 c 143.15411,0 222.59922,54.3995 237.99559,163.5517 0,62.2724 -16.82251,113.8077 -50.46753,154.6058 -33.28214,41.1566 -83.7437,77.6539 -150.66414,109.5143 -74.79857,36.5048 -145.65919,71.2101 -212.57963,104.4967 -66.56726,33.2792 -125.61853,68.3578 -177.1538,105.9303 -51.17612,37.2216 -91.61585,80.5211 -120.96079,129.9134 -29.347925,49.3849 -44.021439,107.3639 -44.021439,174.6465 0,60.122 11.095091,114.1586 33.641209,162.4757 22.18735,48.3097 51.89368,87.6817 89.11301,118.1011 36.86168,30.4194 78.01598,53.6782 123.46662,69.7839 45.45065,16.1057 89.47216,23.9756 132.05858,23.9756 H 974.14415 V 2230.0072 H 459.86889 c -55.11631,0 -98.41729,-16.8225 -129.91189,-50.4601 -31.13546,-33.2866 -47.95648,-75.1599 -50.10316,-125.62 5.01091,-60.122 28.27197,-104.1383 70.14382,-132.0563 49.38784,-34.7128 94.83849,-62.9892 135.99577,-84.0976 41.15504,-21.4743 92.68957,-46.5252 154.60208,-75.16 61.5571,-28.6274 105.21946,-49.7433 130.26731,-63.706 75.15996,-45.4425 138.85851,-99.4865 190.39378,-162.4758 51.8937,-62.9817 77.6613,-141.0014 77.6613,-234.7684 0,-60.122 -13.2459,-119.5287 -39.37199,-178.58 -26.11857,-59.0512 -70.85166,-108.4361 -134.19928,-148.16127 -62.98921,-39.7259 -147.0913,-59.7658 -251.94938,-59.7658 H 68.3477 v 188.60097"
         style="fill:#231f20;fill-opacity:1;fill-rule:nonzero;stroke:none;stroke-width:0.74667156"
         id="path14"
         inkscape:connector-curvature="0" /><path
         d="m 1130.2605,440.10001 v 977.01279 c 2.8672,93.767 20.0481,174.2881 51.5352,242.2875 31.1363,67.6409 72.6512,123.828 124.1865,168.5611 51.1768,44.7331 105.9303,76.9445 164.6261,96.6267 58.3375,19.6823 116.309,29.3442 174.2881,29.3442 93.0502,0 174.2881,-17.1809 244.4304,-51.5352 69.7839,-33.996 125.9709,-78.0198 168.5611,-131.3396 42.5901,-53.6857 74.0773,-110.9479 94.1179,-172.1376 19.6898,-61.2047 29.7101,-118.8179 29.7101,-173.5788 0,-56.5454 -7.519,-113.4492 -22.5495,-171.4208 -15.0305,-57.6207 -41.5149,-113.804 -79.0874,-169.2794 -37.9384,-55.1111 -88.7569,-101.27927 -153.1722,-138.14017 -64.0645,-37.2194 -142.0842,-59.0483 -233.7008,-66.2059 -37.2141,0 -68.7087,1.4291 -95.5515,4.6525 -26.4845,3.2197 -55.4703,9.6597 -87.3233,19.3254 -31.853,10.0188 -70.5007,26.8398 -115.9506,50.4593 v 198.26737 c 85.1728,-41.8718 141.0015,-67.641 166.7691,-77.6628 25.7676,-9.6597 62.6308,-14.6706 109.8727,-14.6706 64.4154,0.7146 121.3192,17.5349 171.0625,50.4616 49.7432,32.923 87.3232,76.9437 112.7324,132.0555 25.4167,55.4703 38.2968,116.3091 38.2968,182.5239 0,70.8591 -16.4641,132.7731 -49.7507,186.8098 -33.2792,53.6856 -76.5861,94.8347 -129.5475,123.1112 -52.9689,28.2689 -107.7223,42.5826 -163.551,42.5826 -54.044,0 -106.2886,-15.0305 -157.4655,-44.7331 -50.826,-29.7025 -92.6918,-75.1524 -125.2616,-135.9912 -32.5624,-61.1972 -48.6681,-136.3572 -48.6681,-225.1066 V 440.10001 h -188.6092"
         style="fill:#231f20;fill-opacity:1;fill-rule:nonzero;stroke:none;stroke-width:0.74667156"
         id="path22"
         inkscape:connector-curvature="0" /><path
         d="m 1649.6541,1694.177 c 156.52,0 283.46,-126.94 283.46,-283.47 0,-156.53 -126.94,-283.46 -283.46,-283.46 -156.53,0 -283.47,126.93 -283.47,283.46 0,156.53 126.94,283.47 283.47,283.47"
         style="fill:#ed1c24;fill-opacity:1;fill-rule:evenodd;stroke:none"
         id="path30"
         inkscape:connector-curvature="0" /><path
         d="m 1649.6541,2261.107 c 469.58,0 850.38,-380.82 850.38,-850.4 h -283.5 c 0,313.05 -253.83,566.93 -566.88,566.93 v 283.47"
         style="fill:#00adef;fill-opacity:1;fill-rule:evenodd;stroke:none"
         id="path32"
         inkscape:connector-curvature="0" /><path
         d="m 1649.6541,2828.027 c 782.68,0 1417.28,-634.69 1417.28,-1417.32 h -283.4 c 0,626.11 -507.8,1133.86 -1133.88,1133.86 v 283.46"
         style="fill:#00adef;fill-opacity:1;fill-rule:evenodd;stroke:none"
         id="path34"
         inkscape:connector-curvature="0" /><path
         d="m 1649.6541,3394.957 c 1095.68,0 1984.28,-888.56 1984.28,-1984.25 h -283.5 c 0,939.16 -761.6,1700.79 -1700.78,1700.79 v 283.46"
         style="fill:#00adef;fill-opacity:1;fill-rule:evenodd;stroke:none"
         id="path36"
         inkscape:connector-curvature="0" /><path
         d="m 3440.8065,2055.3603 h 206.4958 v 226.0543 h -206.4958 z"
         style="fill:#231f20;fill-opacity:1;fill-rule:nonzero;stroke:none;stroke-width:0.28932217"
         id="path18-3"
         inkscape:connector-curvature="0" /><path
         d="m 3443.1905,909.75718 h 206.4958 V 1982.7024 h -206.4958 z"
         style="fill:#231f20;fill-opacity:1;fill-rule:nonzero;stroke:none;stroke-width:0.63032442"
         id="path18"
         inkscape:connector-curvature="0" /><path
         d="m 2323.3324,1121.6478 c -92.7905,164.9608 -85.917,309.2118 -85.917,309.2118 2.8672,93.767 20.0481,174.288 51.5427,242.2874 31.1287,67.641 72.6437,123.828 124.1789,168.5611 51.1769,44.7331 105.9303,76.9445 164.6262,96.6268 58.3374,19.6822 116.309,29.3442 174.2881,29.3442 93.0502,0 174.288,-17.1809 244.4304,-51.5353 69.7839,-33.996 125.9709,-78.0197 168.576,-131.3395 42.5603,-53.6857 74.0697,-110.948 94.0806,-172.1377 19.7121,-61.2047 29.7174,-118.8178 29.7174,-173.5787 0,-56.5455 -7.4667,-113.4493 -22.5494,-171.4209 -15.0081,-57.6206 -41.5149,-113.8039 -79.0725,-169.2794 -37.9383,-55.1111 -88.7568,-101.27933 -153.1722,-138.14023 -64.0644,-37.2193 -142.0841,-59.0483 -233.7007,-66.2059 -37.2141,0 -68.7087,1.4292 -95.5516,4.6525 -26.4844,3.2197 -55.4702,9.6597 -87.3232,19.3254 -31.853,10.0188 -165.0095,45.7416 -256.8546,158.71483 m 152.9323,97.9454 46.3953,-31.9902 c 85.1728,-41.8719 82.5778,-43.5842 108.3455,-53.6061 25.7676,-9.6596 62.6308,-14.6706 109.8727,-14.6706 64.4153,0.7148 121.3192,17.5349 171.0624,50.4616 49.7508,32.923 87.3233,76.9438 112.7325,132.0556 25.4092,55.4702 38.2968,116.309 38.2968,182.5238 0,70.8592 -16.4641,132.7732 -49.7507,186.8098 -33.2792,53.6857 -76.5861,94.8348 -129.5475,123.1112 -52.9689,28.269 -107.7223,42.5827 -163.551,42.5827 -54.0441,0 -106.2961,-15.0305 -157.4655,-44.7331 -50.826,-29.7026 -92.6918,-75.1525 -125.2617,-135.9913 -32.5623,-61.1972 -48.668,-136.3572 -48.668,-225.1065 l 15.3689,-83.6314 26.2795,-77.7468"
         style="fill:#231f20;fill-opacity:1;fill-rule:nonzero;stroke:none;stroke-width:0.74667156"
         id="path24"
         inkscape:connector-curvature="0"
         sodipodi:nodetypes="cccccscccscccccccccccccsccsccscc" /></g></g></svg>