<?xml version="1.0" encoding="UTF-8" standalone="no"?>
<!-- Created with Inkscape (http://www.inkscape.org/) -->

<svg
   xmlns:dc="http://purl.org/dc/elements/1.1/"
   xmlns:cc="http://creativecommons.org/ns#"
   xmlns:rdf="http://www.w3.org/1999/02/22-rdf-syntax-ns#"
   xmlns:svg="http://www.w3.org/2000/svg"
   xmlns="http://www.w3.org/2000/svg"
   xmlns:sodipodi="http://sodipodi.sourceforge.net/DTD/sodipodi-0.dtd"
   xmlns:inkscape="http://www.inkscape.org/namespaces/inkscape"
   id="svg2"
   version="1.1"
   inkscape:version="0.91 r13725"
   xml:space="preserve"
   width="113.65875"
   height="113.65875"
   viewBox="0 0 113.65875 113.65875"
   sodipodi:docname="elf_icon.svg"
   inkscape:export-filename="/home/sleitgeb/prace/Projects/cordova/europeanLocationFramework/res/android/xxxhdpi.png"
   inkscape:export-xdpi="152.03404"
   inkscape:export-ydpi="152.03404"><metadata
     id="metadata8"><rdf:RDF><cc:Work
         rdf:about=""><dc:format>image/svg+xml</dc:format><dc:type
           rdf:resource="http://purl.org/dc/dcmitype/StillImage" /><dc:title></dc:title></cc:Work></rdf:RDF></metadata><defs
     id="defs6"><clipPath
       clipPathUnits="userSpaceOnUse"
       id="clipPath18"><path
         d="m 360,7149.63 3046.07,0 0,909.27 -3046.07,0 0,-909.27 z"
         id="path20"
         inkscape:connector-curvature="0" /></clipPath><clipPath
       clipPathUnits="userSpaceOnUse"
       id="clipPath132"><path
         d="m 1269.27,7604.27 c 0,-251.09 -203.55,-454.64 -454.637,-454.64 -251.082,0 -454.633,203.55 -454.633,454.64 0,251.08 203.551,454.63 454.633,454.63 251.087,0 454.637,-203.55 454.637,-454.63 z"
         id="path134"
         inkscape:connector-curvature="0" /></clipPath></defs><sodipodi:namedview
     pagecolor="#ffffff"
     bordercolor="#666666"
     borderopacity="1"
     objecttolerance="10"
     gridtolerance="10"
     guidetolerance="10"
     inkscape:pageopacity="0"
     inkscape:pageshadow="2"
     inkscape:window-width="1920"
     inkscape:window-height="1016"
     id="namedview4"
     showgrid="false"
     fit-margin-top="0"
     fit-margin-left="0"
     fit-margin-right="0"
     fit-margin-bottom="0"
     inkscape:zoom="3.588117"
     inkscape:cx="2.0477334"
     inkscape:cy="52.436687"
     inkscape:window-x="0"
     inkscape:window-y="27"
     inkscape:window-maximized="1"
     inkscape:current-layer="g10" /><g
     id="g10"
     inkscape:groupmode="layer"
     inkscape:label="ink_ext_XXXXXX"
     transform="matrix(1.25,0,0,-1.25,-45,1007.3625)"><g
       id="g128"
       transform="scale(0.1,0.1)"><g
         clip-path="url(#clipPath132)"
         id="g130"><path
           inkscape:connector-curvature="0"
           id="path136"
           style="fill:#4081cb;fill-opacity:1;fill-rule:nonzero;stroke:none"
           d="m 1162.81,7896.43 c -0.04,0 -0.07,-0.03 -0.11,-0.03 -1.26,0 -2.22,0.43 -3.03,1.01 -2.26,1.06 -3.19,3.61 -2.79,5.95 -30.67,35.1 -67.22,66.09 -109.42,91.27 -59.53,35.54 -123.87,55.61 -188.581,61.91 0.113,-2.82 -1.613,-5.73 -5.25,-5.73 -0.84,0 -1.563,0.18 -2.203,0.45 l 109.359,-65.57 -68.844,-114.8 79.747,-107.56 -107.524,-79.74 32.551,-129.9 -129.906,-32.55 -19.645,-132.44 -132.476,19.64 -68.836,-114.8 -109.813,65.83 c 0.039,-1.74 -0.691,-3.42 -2.078,-4.49 23.305,-35.63 51.855,-68.32 85.281,-96.85 0.703,0.36 1.516,0.6 2.488,0.6 1.258,0 2.176,-0.45 2.958,-1.04 0.511,-0.29 0.703,-0.84 1.066,-1.26 0.164,-0.17 0.309,-0.35 0.453,-0.54 0.262,-0.42 0.566,-0.76 0.707,-1.25 0.359,-0.95 0.422,-1.99 0.277,-3.02 16.852,-13.73 34.75,-26.55 53.981,-38.02 40.984,-24.47 84.277,-41.7 128.391,-52.14 0.867,1.22 2.23,2.11 4.199,2.11 2.933,0 4.574,-1.91 5.066,-4.12 18.914,-4.06 37.973,-6.82 57.039,-8.43 0.68,1.9 2.317,3.4 4.93,3.4 1.422,0 2.383,-0.58 3.183,-1.31 0.575,0.2 1.176,0.38 1.899,0.38 1.605,0 2.797,-0.6 3.672,-1.48 0.168,0.03 0.304,0.1 0.492,0.1 1.473,0 2.562,-0.55 3.426,-1.3 0.761,-0.14 1.441,-0.39 2.015,-0.76 65.407,-2.67 130.454,9.03 190.7,33.49 0.597,2.03 2.246,3.71 5,3.71 1.007,0 1.836,-0.27 2.554,-0.65 69.402,29.63 131.962,76.6 180.402,139.33 -0.25,0.78 -0.34,1.61 -0.28,2.44 -0.01,0.08 0.03,0.16 0.03,0.25 -0.2,2.88 1.5,5.91 5.22,5.91 0.46,0 0.81,-0.16 1.2,-0.25 8.65,11.75 16.91,23.94 24.55,36.74 8.15,13.67 15.48,27.59 22.05,41.71 -2.61,3.09 -1.28,9.19 3.99,9.19 0.01,0 0.02,0 0.03,0 70.33,160.23 41.05,344.43 -68.12,474.61" /><path
           inkscape:connector-curvature="0"
           id="path138"
           style="fill:#293c77;fill-opacity:1;fill-rule:nonzero;stroke:none"
           d="m 864.164,7683.59 112.18,83.7 -78.348,109.97 -58.746,-94.28 24.914,-99.39" /><path
           inkscape:connector-curvature="0"
           id="path140"
           style="fill:#293c77;fill-opacity:1;fill-rule:nonzero;stroke:none"
           d="m 613.738,7404.66 133.426,-15.96 19.645,132.44 -99.454,-24.92 -53.617,-91.56" /><path
           inkscape:connector-curvature="0"
           id="path142"
           style="fill:#293c77;fill-opacity:1;fill-rule:nonzero;stroke:none"
           d="m 891.941,7870.89 68.844,114.8 -114.867,68.87 -15.039,-101.35 61.062,-82.32" /><path
           inkscape:connector-curvature="0"
           id="path144"
           style="fill:#293c77;fill-opacity:1;fill-rule:nonzero;stroke:none"
           d="m 431.02,7362.38 114.832,-68.84 68.836,114.8 -101.387,15.04 -82.281,-61" /><path
           inkscape:connector-curvature="0"
           id="path146"
           style="fill:#293c77;fill-opacity:1;fill-rule:nonzero;stroke:none"
           d="m 818.137,7867.29 21.113,-84.31 58.395,95.34 -61.829,84.32 -17.679,-95.35" /><path
           inkscape:connector-curvature="0"
           id="path148"
           style="fill:#293c77;fill-opacity:1;fill-rule:nonzero;stroke:none"
           d="m 428.227,7366.08 c 2.164,0 3.578,-1.07 4.414,-2.5 l 80.66,59.8 -85.848,12.78 -27.566,-6.92 c 0.242,-2.3 -0.731,-4.72 -3.024,-5.68 8.606,-19.86 18.649,-39.15 30.051,-57.75 0.43,0.1 0.813,0.27 1.313,0.27" /><path
           inkscape:connector-curvature="0"
           id="path150"
           style="fill:#293c77;fill-opacity:1;fill-rule:nonzero;stroke:none"
           d="m 578.43,7469.04 -69.742,-51.73 101.39,-15.04 52.66,87.88 -84.308,-21.11" /><path
           inkscape:connector-curvature="0"
           id="path152"
           style="fill:#293c77;fill-opacity:1;fill-rule:nonzero;stroke:none"
           d="m 842.004,8058.06 -2.156,0.14 c -21.442,1.18 -42.844,0.82 -64.121,-1.02 1.246,-2.1 1.097,-5.02 -0.567,-6.83 -0.262,-0.31 -0.629,-0.5 -0.976,-0.73 -0.274,-0.18 -0.536,-0.36 -0.86,-0.48 -0.242,-0.1 -0.39,-0.3 -0.656,-0.36 l 6.48,-25.8 51.731,-69.77 14.664,98.86 c -2.715,0.81 -3.887,3.47 -3.539,5.99" /><path
           inkscape:connector-curvature="0"
           id="path154"
           style="fill:#293c77;fill-opacity:1;fill-rule:nonzero;stroke:none"
           d="m 507.98,7416.96 75.055,58.15 -168.156,-46.2 93.101,-11.95 z" /><path
           inkscape:connector-curvature="0"
           id="path156"
           style="fill:#293c77;fill-opacity:1;fill-rule:nonzero;stroke:none"
           d="m 835.113,7969.32 -57.269,73.07 40.293,-175.1 16.976,102.03 z" /><path
           inkscape:connector-curvature="0"
           id="path158"
           style="fill:#293c77;fill-opacity:1;fill-rule:nonzero;stroke:none"
           d="m 766.809,7521.14 129.906,32.55 -32.551,129.9 -82.312,-61.04 -15.043,-101.41" /><path
           inkscape:connector-curvature="0"
           id="path160"
           style="fill:#293c77;fill-opacity:1;fill-rule:nonzero;stroke:none"
           d="m 794.59,7708.43 -12.738,-85.88 82.312,61.04 -24.914,99.39 -44.66,-74.55" /><path
           inkscape:connector-curvature="0"
           id="path162"
           style="fill:#293c77;fill-opacity:1;fill-rule:nonzero;stroke:none"
           d="m 712.074,7570.76 -44.719,-74.54 99.454,24.92 15.043,101.41 -69.778,-51.79" /><path
           inkscape:connector-curvature="0"
           id="path164"
           style="fill:#293c77;fill-opacity:1;fill-rule:nonzero;stroke:none"
           d="m 781.852,7622.55 12.738,85.88 -82.516,-137.67 69.778,51.79 z" /><path
           inkscape:connector-curvature="0"
           id="path166"
           style="fill:#293c77;fill-opacity:1;fill-rule:nonzero;stroke:none"
           d="m 839.25,7782.98 -21.113,84.31 -23.547,-158.86 44.66,74.55 z" /><path
           inkscape:connector-curvature="0"
           id="path168"
           style="fill:#293c77;fill-opacity:1;fill-rule:nonzero;stroke:none"
           d="m 667.355,7496.22 44.719,74.54 -129.039,-95.65 84.32,21.11 z" /><path
           inkscape:connector-curvature="0"
           id="path170"
           style="fill:#293c77;fill-opacity:1;fill-rule:nonzero;stroke:none"
           d="m 771.641,8052.82 c -0.274,-0.03 -0.485,-0.16 -0.782,-0.16 -2.691,0 -4.336,1.59 -4.976,3.56 l -10.449,-1.26 C 622.156,8037.49 497.926,7961.51 423.715,7837.18 349.473,7712.8 341.602,7567.36 389.496,7441.76 l 3.699,-9.13 c 0.348,0.07 0.637,0.21 1.035,0.21 1.055,0 1.899,-0.29 2.633,-0.71 1.965,-0.63 3.098,-2.26 3.422,-4.11 l 182.75,47.09 129.039,95.65 82.516,137.67 23.547,158.86 -46.496,185.53" /><path
           inkscape:connector-curvature="0"
           id="path172"
           style="fill:#1c63b7;fill-opacity:1;fill-rule:nonzero;stroke:none"
           d="m 1134.18,7881.18 -173.395,104.51 -63.496,-109.83 79.758,-109.27 157.133,114.59" /><path
           inkscape:connector-curvature="0"
           id="path174"
           style="fill:#1c63b7;fill-opacity:1;fill-rule:nonzero;stroke:none"
           d="m 716.383,7190.79 30.781,197.91 -130.605,15.37 -70.176,-114.06 170,-99.22" /><path
           inkscape:connector-curvature="0"
           id="path176"
           style="fill:#1c63b7;fill-opacity:1;fill-rule:nonzero;stroke:none"
           d="m 943.879,7359.55 -47.164,194.14 -129.906,-32.55 -19.645,-132.44 196.715,-29.15" /><path
           inkscape:connector-curvature="0"
           id="path178"
           style="fill:#1c63b7;fill-opacity:1;fill-rule:nonzero;stroke:none"
           d="m 1092.65,7603.76 -112.795,165.28 -110.671,-84.68 31.39,-129.27 192.076,48.67" /><path
           inkscape:connector-curvature="0"
           id="path180"
           style="fill:#fff200;fill-opacity:1;fill-rule:nonzero;stroke:none"
           d="m 583.508,7844.15 23.91,-75.28 78.945,-0.5 -64.207,-45.99 23.918,-75.28 -63.601,46.83 -64.172,-45.99 24.914,74.94 -63.567,46.82 78.942,-0.5 24.918,74.95" /><path
           inkscape:connector-curvature="0"
           id="path182"
           style="fill:#51abe3;fill-opacity:1;fill-rule:nonzero;stroke:none"
           d="m 1230.8,7419.82 c -0.61,-1.41 -1.21,-2.84 -1.83,-4.24 l 0.01,-0.07 c 0,0 0.72,1.63 1.82,4.31" /><path
           inkscape:connector-curvature="0"
           id="path184"
           style="fill:#51ade5;fill-opacity:1;fill-rule:nonzero;stroke:none"
           d="m 1267.07,7645.54 -168.62,-44.85 129.34,-183.45 c 0.23,2.09 1.5,3.96 3.81,4.53 5.94,14.65 22.19,48.1 32.15,104.23 7.04,39.68 7.11,80.05 3.32,119.54" /><path
           inkscape:connector-curvature="0"
           id="path186"
           style="fill:#51ade5;fill-opacity:1;fill-rule:nonzero;stroke:none"
           d="m 1173.86,7327.79 -224.899,29.54 44.246,-170.54 c 0.387,-0.13 0.731,-0.3 1.051,-0.5 36.042,15.79 69.972,34.75 100.862,60.16 47.29,38.89 67.76,65.14 76.34,76.05 0.64,0.86 1.73,2.24 2.71,3.49 -0.21,0.58 -0.29,1.19 -0.31,1.8" /><path
           inkscape:connector-curvature="0"
           id="path188"
           style="fill:#293c77;fill-opacity:1;fill-rule:nonzero;stroke:none"
           d="m 520.277,7258.3 c 0.629,0.88 1.473,1.59 2.684,1.91 0.152,0.06 0.246,0.17 0.418,0.21 l 22.258,32.09 -108.672,65.15 c -0.43,-1.64 -1.547,-2.99 -3.332,-3.55 23.242,-35.58 51.508,-68.29 84.875,-96.75 0.492,0.42 1.078,0.73 1.769,0.94" /><path
           inkscape:connector-curvature="0"
           id="path190"
           style="fill:#293c77;fill-opacity:1;fill-rule:nonzero;stroke:none"
           d="m 981.055,8028.07 c -39.86,15.57 -81.02,25.01 -122.321,28.88 0.45,-2.45 -0.519,-5.18 -3.019,-6.17 l 105.769,-62.87 18.868,37.15 c -0.043,1.06 0.218,2.08 0.703,3.01" /><path
           inkscape:connector-curvature="0"
           id="path192"
           style="fill:none;stroke:#ffffff;stroke-width:9.68105984;stroke-linecap:butt;stroke-linejoin:miter;stroke-miterlimit:10;stroke-dasharray:none;stroke-opacity:1"
           d="M 431.02,7362.38 794.59,7145.46" /><path
           inkscape:connector-curvature="0"
           id="path194"
           style="fill:none;stroke:#ffffff;stroke-width:9.68105984;stroke-linecap:butt;stroke-linejoin:miter;stroke-miterlimit:10;stroke-dasharray:none;stroke-opacity:1"
           d="M 846.387,8057.77 713.711,7156.07" /><path
           inkscape:connector-curvature="0"
           id="path196"
           style="fill:none;stroke:#ffffff;stroke-width:9.68105984;stroke-linecap:butt;stroke-linejoin:miter;stroke-miterlimit:10;stroke-dasharray:none;stroke-opacity:1"
           d="m 770.48,8057.71 220.489,-876.5" /><path
           inkscape:connector-curvature="0"
           id="path198"
           style="fill:none;stroke:#ffffff;stroke-width:9.68105984;stroke-linecap:butt;stroke-linejoin:miter;stroke-miterlimit:10;stroke-dasharray:none;stroke-opacity:1"
           d="m 770.453,8056.81 461.187,-643.2" /><path
           inkscape:connector-curvature="0"
           id="path200"
           style="fill:none;stroke:#ffffff;stroke-width:9.68105984;stroke-linecap:butt;stroke-linejoin:miter;stroke-miterlimit:10;stroke-dasharray:none;stroke-opacity:1"
           d="M 844.719,8059.84 1214.96,7833.09" /><path
           inkscape:connector-curvature="0"
           id="path202"
           style="fill:none;stroke:#ffffff;stroke-width:9.68105984;stroke-linecap:butt;stroke-linejoin:miter;stroke-miterlimit:10;stroke-dasharray:none;stroke-opacity:1"
           d="M 389.848,7426.73 1270.6,7648.14" /><path
           inkscape:connector-curvature="0"
           id="path204"
           style="fill:none;stroke:#ffffff;stroke-width:9.68105984;stroke-linecap:butt;stroke-linejoin:miter;stroke-miterlimit:10;stroke-dasharray:none;stroke-opacity:1"
           d="m 427.453,7360.25 734.817,541.63" /><path
           inkscape:connector-curvature="0"
           id="path206"
           style="fill:none;stroke:#ffffff;stroke-width:9.68105984;stroke-linecap:butt;stroke-linejoin:miter;stroke-miterlimit:10;stroke-dasharray:none;stroke-opacity:1"
           d="m 397.91,7428.39 787.3,-99.36" /><path
           inkscape:connector-curvature="0"
           id="path208"
           style="fill:none;stroke:#ffffff;stroke-width:9.68105984;stroke-linecap:butt;stroke-linejoin:miter;stroke-miterlimit:10;stroke-dasharray:none;stroke-opacity:1"
           d="M 986.133,8027.25 521.637,7251.65" /></g></g></g></svg>