<?xml version="1.0" encoding="UTF-8" standalone="no"?>
<!-- Created with Inkscape (http://www.inkscape.org/) -->

<svg
   xmlns:dc="http://purl.org/dc/elements/1.1/"
   xmlns:cc="http://creativecommons.org/ns#"
   xmlns:rdf="http://www.w3.org/1999/02/22-rdf-syntax-ns#"
   xmlns:svg="http://www.w3.org/2000/svg"
   xmlns="http://www.w3.org/2000/svg"
   xmlns:sodipodi="http://sodipodi.sourceforge.net/DTD/sodipodi-0.dtd"
   xmlns:inkscape="http://www.inkscape.org/namespaces/inkscape"
   id="svg2"
   version="1.1"
   inkscape:version="0.91 r13725"
   xml:space="preserve"
   width="1433.75"
   height="571.25"
   viewBox="0 0 1433.75 571.25"
   sodipodi:docname="logo_sdi4apps.svg"><metadata
     id="metadata8"><rdf:RDF><cc:Work
         rdf:about=""><dc:format>image/svg+xml</dc:format><dc:type
           rdf:resource="http://purl.org/dc/dcmitype/StillImage" /><dc:title></dc:title></cc:Work></rdf:RDF></metadata><defs
     id="defs6" /><sodipodi:namedview
     pagecolor="#ffffff"
     bordercolor="#666666"
     borderopacity="1"
     objecttolerance="10"
     gridtolerance="10"
     guidetolerance="10"
     inkscape:pageopacity="0"
     inkscape:pageshadow="2"
     inkscape:window-width="960"
     inkscape:window-height="1016"
     id="namedview4"
     showgrid="false"
     inkscape:zoom="0.40737242"
     inkscape:cx="779.27857"
     inkscape:cy="282.48178"
     inkscape:window-x="960"
     inkscape:window-y="27"
     inkscape:window-maximized="0"
     inkscape:current-layer="g10" /><g
     id="g10"
     inkscape:groupmode="layer"
     inkscape:label="ink_ext_XXXXXX"
     transform="matrix(1.25,0,0,-1.25,0,571.25)"><g
       id="g12"
       transform="scale(0.1,0.1)"><path
         d="m 68.3477,877.859 710.3203,0 c 191.723,0 298.122,72.856 318.742,219.041 0,83.4 -22.53,152.42 -67.59,207.06 -44.574,55.12 -112.156,104 -201.781,146.67 -100.176,48.89 -195.078,95.37 -284.703,139.95 -89.152,44.57 -168.238,91.55 -237.258,141.87 -68.539,49.85 -122.699,107.84 -162,173.99 -39.305,66.14 -58.9569,143.79 -58.9569,233.9 0,80.52 14.8594,152.89 45.0549,217.6 29.715,64.7 69.5,117.43 119.347,158.17 49.368,40.74 104.485,71.89 165.356,93.46 60.871,21.57 119.828,32.11 176.863,32.11 l 689.718,0 0,-255.46 -688.757,0 c -73.816,0 -131.808,-22.53 -173.988,-67.58 -41.699,-44.58 -64.227,-100.66 -67.102,-168.24 6.711,-80.52 37.864,-139.47 93.942,-176.86 66.144,-46.49 127.015,-84.36 182.136,-112.63 55.118,-28.76 124.137,-62.31 207.055,-100.66 82.442,-38.34 140.918,-66.62 174.464,-85.32 100.66,-60.86 185.97,-133.24 254.99,-217.6 69.5,-84.35 104.01,-188.84 104.01,-314.42 0,-80.52 -17.74,-160.082 -52.73,-239.168 C 1280.5,824.656 1220.59,758.516 1135.75,705.313 1051.39,652.109 938.754,625.27 798.32,625.27 l -729.9723,0 0,252.589"
         style="fill:#231f20;fill-opacity:1;fill-rule:nonzero;stroke:none"
         id="path14"
         inkscape:connector-curvature="0" /><path
         d="m 1616.01,625.27 0,2016.41 532.02,0 c 111.2,0 220.96,-20.61 328.32,-62.3 107.85,-41.7 208.02,-104.01 300.53,-186.93 92.5,-82.92 168.71,-187.41 228.62,-313.94 59.91,-126.06 93.94,-270.33 102.57,-432.33 -1.91,-118.87 -22.05,-237.73 -60.39,-356.12 -38.34,-118.39 -95.38,-225.75 -171.11,-323.048 -75.73,-96.821 -174.46,-176.383 -296.21,-238.692 -121.74,-62.312 -262.18,-96.343 -421.3,-103.05 l -164.4,0 0,258.343 186.92,0 c 96.34,0 185.49,23.485 267.45,70.934 81.96,46.973 150.5,107.843 206.1,181.653 55.12,73.82 97.3,155.3 127.01,244.93 29.24,89.15 44.1,177.33 44.1,264.09 -4.79,135.64 -38.34,260.26 -100.17,374.33 -62.31,113.6 -149.54,203.23 -261.22,268.41 -112.15,65.67 -243.49,98.26 -393.99,98.26 l -188.36,0 0,-1760.95 -266.49,0"
         style="fill:#231f20;fill-opacity:1;fill-rule:nonzero;stroke:none"
         id="path16"
         inkscape:connector-curvature="0" /><path
         d="m 3380.79,625.27 276.555,0 0,2016.41 -276.555,0 0,-2016.41 z"
         style="fill:#231f20;fill-opacity:1;fill-rule:nonzero;stroke:none"
         id="path18"
         inkscape:connector-curvature="0" /><path
         d="m 5552.98,625.27 5.75,1336.77 c 3.84,102.09 23.01,196.99 58,285.66 35.47,88.67 83.88,164.88 145.71,229.59 61.35,64.7 131.81,113.59 210.89,147.62 79.08,33.55 165.36,50.33 257.86,50.33 133.73,0 253.55,-30.2 359.48,-91.07 105.92,-60.87 188.84,-150.03 248.75,-266.97 59.92,-116.95 90.11,-256.43 91.07,-418.43 l 0,-1273.5 -270.8,0 0,915.46 -723.27,0 0,258.34 723.27,0 c 0.95,12.95 1.44,24.93 1.91,34.99 0.48,10.55 0.96,23.49 0.96,39.31 0,181.65 -36.42,318.73 -109.28,410.76 -72.85,92.5 -174.46,138.51 -304.35,138.51 l -5.75,0 c -102.58,0 -185.5,-25.88 -247.32,-77.16 -62.31,-51.77 -105.45,-112.16 -129.9,-182.14 -24.44,-69.5 -36.42,-136.6 -36.42,-201.3 l 0,-1336.77 -276.56,0"
         style="fill:#231f20;fill-opacity:1;fill-rule:nonzero;stroke:none"
         id="path20"
         inkscape:connector-curvature="0" /><path
         d="m 7161.03,7.44922 0,1308.49078 c 3.84,125.58 26.85,233.42 69.02,324.49 41.7,90.59 97.3,165.84 166.32,225.75 68.54,59.91 141.87,103.05 220.48,129.41 78.13,26.36 155.77,39.3 233.42,39.3 124.62,0 233.42,-23.01 327.36,-69.02 93.46,-45.53 168.71,-104.49 225.75,-175.9 57.04,-71.9 99.21,-148.59 126.05,-230.54 26.37,-81.97 39.79,-159.13 39.79,-232.47 0,-75.73 -10.07,-151.94 -30.2,-229.58 -20.13,-77.17 -55.6,-152.415 -105.92,-226.712 -50.81,-73.809 -118.87,-135.641 -205.14,-185.008 -85.8,-49.847 -190.29,-79.082 -312.99,-88.668 -49.84,0 -92.02,1.914 -127.97,6.231 -35.47,4.312 -74.29,12.937 -116.95,25.882 -42.66,13.418 -94.42,35.946 -155.29,67.579 l 0,265.535 c 114.07,-56.078 188.84,-90.59 223.35,-104.012 34.51,-12.937 83.88,-19.648 147.15,-19.648 86.27,0.957 162.48,23.484 229.1,67.582 66.62,44.093 116.95,103.049 150.98,176.859 34.04,74.29 51.29,155.77 51.29,244.45 0,94.9 -22.05,177.82 -66.63,250.19 -44.57,71.9 -102.57,127.01 -173.5,164.88 -70.94,37.86 -144.27,57.03 -219.04,57.03 -72.38,0 -142.35,-20.13 -210.89,-59.91 -68.07,-39.78 -124.14,-100.65 -167.76,-182.13 -43.61,-81.96 -65.18,-182.62 -65.18,-301.48 l 0,-1248.58078 -252.6,0"
         style="fill:#231f20;fill-opacity:1;fill-rule:nonzero;stroke:none"
         id="path22"
         inkscape:connector-curvature="0" /><path
         d="m 8763.33,7.44922 0,1308.49078 c 3.84,125.58 26.85,233.42 69.03,324.49 41.69,90.59 97.29,165.84 166.31,225.75 68.54,59.91 141.87,103.05 220.48,129.41 78.13,26.36 155.77,39.3 233.42,39.3 124.62,0 233.42,-23.01 327.36,-69.02 93.46,-45.53 168.71,-104.49 225.77,-175.9 57,-71.9 99.2,-148.59 126,-230.54 26.4,-81.97 39.8,-159.13 39.8,-232.47 0,-75.73 -10,-151.94 -30.2,-229.58 -20.1,-77.17 -55.6,-152.415 -105.9,-226.712 -50.81,-73.809 -118.87,-135.641 -205.14,-185.008 -85.8,-49.847 -190.29,-79.082 -312.99,-88.668 -49.84,0 -92.02,1.914 -127.97,6.231 -35.47,4.312 -74.29,12.937 -116.95,25.882 -42.66,13.418 -94.42,35.946 -155.29,67.579 l 0,265.535 c 114.07,-56.078 188.84,-90.59 223.35,-104.012 34.51,-12.937 83.88,-19.648 147.15,-19.648 86.27,0.957 162.48,23.484 229.1,67.582 66.63,44.093 116.95,103.049 150.98,176.859 34.03,74.29 51.29,155.77 51.29,244.45 0,94.9 -22.05,177.82 -66.63,250.19 -44.57,71.9 -102.57,127.01 -173.5,164.88 -70.94,37.86 -144.27,57.03 -219.04,57.03 -72.38,0 -142.36,-20.13 -210.89,-59.91 -68.07,-39.78 -124.14,-100.65 -167.76,-182.13 -43.61,-81.96 -65.18,-182.62 -65.18,-301.48 l 0,-1248.58078 -252.6,0"
         style="fill:#231f20;fill-opacity:1;fill-rule:nonzero;stroke:none"
         id="path24"
         inkscape:connector-curvature="0" /><path
         d="m 10330.6,860.605 693.6,0 c 5.7,0 12.5,-1.917 19.6,-5.753 45.1,4.793 83,14.859 114.1,30.199 30.7,15.816 47.5,46.969 50.3,93.465 0,34.984 -12.4,64.224 -37.8,87.714 -25.4,23.96 -59.5,45.05 -102.6,63.26 -43.1,18.22 -96.8,36.91 -160.6,55.12 -64.2,18.21 -125.1,35.47 -182.1,52.72 -132.8,44.58 -231,96.35 -294.8,154.34 -63.7,58 -96.8,138.04 -99.7,240.13 0,93.94 23.5,168.24 71,224.31 47,55.6 105.9,93.94 176.8,115.03 70.5,21.09 145.3,31.64 223.9,31.64 l 595.3,0 0,-241.57 -644.2,0 c -48.9,0 -87.2,-10.54 -115.5,-32.11 -27.8,-21.57 -41.7,-52.24 -41.7,-91.55 2.4,-30.67 17.2,-57.04 43.1,-78.6 26.4,-21.57 59,-40.27 98.3,-55.61 39.3,-15.33 80.5,-28.75 123.6,-39.3 43.2,-10.54 94,-23 152,-37.38 158.1,-44.1 273.2,-101.13 345.1,-172.07 72.3,-70.46 108.3,-160.56 108.3,-270.324 -16.8,-239.172 -166.3,-358.996 -448.2,-358.996 l -687.8,0 0,235.335"
         style="fill:#231f20;fill-opacity:1;fill-rule:nonzero;stroke:none"
         id="path26"
         inkscape:connector-curvature="0" /><path
         d="m 4780.83,1344.22 0,871.85 276.56,470.67 0,-1342.52 301.95,0 0,-252.59 -301.95,0 0,-466.36 -276.56,0 0,466.36 -736.2,0 c -115.04,0 -176.39,52.24 -183.58,157.21 3.84,26.36 11.5,58 23.97,95.38 l 718.47,1297.46 295.72,0 -723.74,-1297.46 605.36,0"
         style="fill:#00adef;fill-opacity:1;fill-rule:nonzero;stroke:none"
         id="path28"
         inkscape:connector-curvature="0" /><path
         d="m 9466.12,2862.05 c 156.52,0 283.46,-126.94 283.46,-283.47 0,-156.53 -126.94,-283.46 -283.46,-283.46 -156.53,0 -283.47,126.93 -283.47,283.46 0,156.53 126.94,283.47 283.47,283.47"
         style="fill:#ed1c24;fill-opacity:1;fill-rule:evenodd;stroke:none"
         id="path30"
         inkscape:connector-curvature="0" /><path
         d="m 9466.12,3428.98 c 469.58,0 850.38,-380.82 850.38,-850.4 l -283.5,0 c 0,313.05 -253.83,566.93 -566.88,566.93 l 0,283.47"
         style="fill:#00adef;fill-opacity:1;fill-rule:evenodd;stroke:none"
         id="path32"
         inkscape:connector-curvature="0" /><path
         d="m 9466.12,3995.9 c 782.68,0 1417.28,-634.69 1417.28,-1417.32 l -283.4,0 c 0,626.11 -507.8,1133.86 -1133.88,1133.86 l 0,283.46"
         style="fill:#00adef;fill-opacity:1;fill-rule:evenodd;stroke:none"
         id="path34"
         inkscape:connector-curvature="0" /><path
         d="m 9466.12,4562.83 c 1095.68,0 1984.28,-888.56 1984.28,-1984.25 l -283.5,0 c 0,939.16 -761.6,1700.79 -1700.78,1700.79 l 0,283.46"
         style="fill:#00adef;fill-opacity:1;fill-rule:evenodd;stroke:none"
         id="path36"
         inkscape:connector-curvature="0" /></g></g></svg>